<?xml version="1.0" encoding="UTF-8"?><svg id="Layer_1" xmlns="http://www.w3.org/2000/svg" viewBox="0 0 1000 149.877"><defs><style>.cls-1{fill:#f2f6f7;}.cls-2{fill:#00c7b3;}</style></defs><path class="cls-1" d="m99.988,100.042l27.047,27.073c-13.461,13.462-32.058,21.788-52.599,21.788C33.329,148.903,0,115.573,0,74.49S33.329.08,74.436.08c20.541,0,39.138,8.326,52.599,21.788l-27.047,27.071c-6.556-6.556-15.58-10.595-25.552-10.595-19.968,0-36.146,16.179-36.146,36.146s16.179,36.146,36.146,36.146c9.971,0,18.995-4.036,25.552-10.595Z"/><path class="cls-1" d="m344.869,20.5S359.803.072,386.684.072c32.854,0,56.748,23.346,56.748,62.742v83.17h-40.321v-78.792c0-17.511-11.947-29.184-28.373-29.184-17.921,0-29.868,11.673-29.868,33.561v74.415h-40.32V2.989h40.32v17.511Z"/><path class="cls-1" d="m506.162,145.984L450.908,2.989h41.814l34.348,94.845L561.417,2.989h41.814l-55.254,142.996h-41.815Z"/><path class="cls-1" d="m643.521,87.619c2.986,14.592,16.426,27.723,38.828,27.723,25.386,0,38.827-17.508,38.827-17.508l20.907,26.263s-22.4,24.807-62.72,24.807c-43.308,0-77.656-33.561-77.656-74.415S636.054.072,677.868.072s73.175,30.64,73.175,71.497c0,10.212-1.494,16.05-1.494,16.05h-106.029Zm0-27.723h67.201c-2.987-14.592-14.934-26.265-32.854-26.265s-29.868,11.673-34.347,26.265Z"/><path class="cls-1" d="m864.115,40.927s-4.479-1.458-13.44-1.458c-20.907,0-34.347,13.131-34.347,37.936v68.58h-40.321V2.989h40.321v17.511s14.934-18.969,41.815-18.969h5.973v39.396Z"/><path class="cls-1" d="m959.68,131.392s-14.934,17.511-40.321,17.511c-29.867,0-49.281-18.969-49.281-40.857,0-23.346,16.427-39.688,43.308-44.358l46.294-8.17c0-11.673-8.961-20.43-25.387-20.43-22.4,0-32.854,14.592-32.854,14.592l-22.402-21.885S898.452.072,937.28.072c37.333,0,62.72,24.804,62.72,56.905v89.007h-40.32v-14.592Zm0-46.692v-4.377l-32.855,5.838c-10.453,1.75-16.426,7.296-16.426,16.05s5.973,14.592,19.413,14.592c17.921,0,29.868-11.675,29.868-32.103Z"/><path class="cls-1" d="m220.572,147.98c-10.445,1.646-20.242-5.485-21.887-15.904-1.645-10.446,5.459-20.242,15.904-21.888,19.693-3.116,33.13-21.637,30.014-41.356-3.116-19.694-21.638-33.181-41.331-30.038,10.42-1.67,17.55-11.469,15.879-21.888-1.645-10.446-11.442-17.574-21.862-15.928,40.559-6.407,78.699,21.262,85.131,61.871,6.432,40.609-21.289,78.7-61.848,85.132Z"/><path class="cls-2" d="m220.572,147.98c-40.608,6.432-78.724-21.265-85.156-61.849C129.01,45.525,156.68,7.41,197.289.978c10.42-1.646,20.217,5.482,21.862,15.928,1.67,10.419-5.459,20.218-15.879,21.888-19.718,3.116-33.18,21.637-30.039,41.356,3.116,19.719,21.613,33.154,41.356,30.038-10.445,1.646-17.55,11.442-15.904,21.888,1.645,10.419,11.442,17.55,21.887,15.904Z"/></svg>